Coordinates
version=1
nRows=11
nColumns=63
inDegrees=yes

Units are S.I. units (second, meters, Newtons, ...)
If the header above contains a line with 'inDegrees', this indicates whether rotational values are in degrees (yes) or radians (no).

endheader
time	pelvis_tilt	pelvis_list	pelvis_rotation	pelvis_tx	pelvis_ty	pelvis_tz	hip_flexion_r	hip_adduction_r	hip_rotation_r	knee_angle_r	knee_angle_r_beta	ankle_angle_r	subtalar_angle_r	mtp_angle_r	hip_flexion_l	hip_adduction_l	hip_rotation_l	knee_angle_l	knee_angle_l_beta	ankle_angle_l	subtalar_angle_l	mtp_angle_l	L5_S1_Flex_Ext	L5_S1_Lat_Bending	L5_S1_axial_rotation	L4_L5_Flex_Ext	L4_L5_Lat_Bending	L4_L5_axial_rotation	L3_L4_Flex_Ext	L3_L4_Lat_Bending	L3_L4_axial_rotation	L2_L3_Flex_Ext	L2_L3_Lat_Bending	L2_L3_axial_rotation	L1_L2_Flex_Ext	L1_L2_Lat_Bending	L1_L2_axial_rotation	L1_T12_Flex_Ext	L1_T12_Lat_Bending	L1_T12_axial_rotation	Abs_r3	Abs_r2	Abs_r1	Abs_t1	Abs_t2	neck_flexion	neck_bending	neck_rotation	arm_flex_r	arm_add_r	arm_rot_r	elbow_flex_r	pro_sup_r	wrist_flex_r	wrist_dev_r	arm_flex_l	arm_add_l	arm_rot_l	elbow_flex_l	pro_sup_l	wrist_flex_l	wrist_dev_l
      0.91525424	      5.47958644	     -3.38016001	     84.36838928	      0.20733146	      0.77076299	      0.83924330	     24.21038089	     -0.91650456	     -3.63908193	     20.46750045	      0.35722527	     44.26051618	     14.02958685	      0.00000000	     20.50033191	     -1.11784561	     -0.55197691	     19.02954320	      0.33212818	     37.96205556	     -8.60165656	      0.00000000	      0.29938497	      0.54594926	      0.60817215	      0.55598784	      0.72611251	      0.64618291	      0.49185957	      1.32742102	      0.64618291	      0.34216709	      1.32742102	      0.53215063	      0.27800889	      1.11329972	      0.49413987	      0.17106857	      0.84567540	      0.45612912	      2.13847694	      6.17588718	      3.38247107	      0.00000000	      0.00000000	     28.30833947	     -4.36539548	     -4.18256870	     11.38663587	     -8.81432098	    129.28885330	      2.21831599	      1.60157583	     11.55991303	    -20.92275765	     11.39380699	    -12.02929574	     69.23098168	     29.09277454	     86.33700273	     -8.65214218	     -3.41809154
      0.93220339	      5.02524978	     -2.99265730	     84.02278476	      0.20981767	      0.77179502	      0.83776338	     23.80818258	     -0.95577295	     -2.35836458	     20.36080480	      0.35536308	     44.47992731	     12.85638140	      0.00000000	     19.98387412	     -1.00431670	     -1.42851329	     19.06974674	      0.33282987	     38.43578708	     -7.75981518	      0.00000000	      0.27766216	      0.53148061	      1.12898183	      0.51564640	      0.70686921	      1.19954319	      0.45617116	      1.29224195	      1.19954319	      0.31734008	      1.29224195	      0.98785910	      0.25783708	      1.08379526	      0.91729773	      0.15865616	      0.82326346	      0.84673637	      1.98331305	      6.01221493	      6.27905823	      0.00000000	      0.00000000	     28.29994301	     -5.21232652	     -5.90091827	     10.51417057	     -9.31700155	    128.63570049	      1.85409398	      1.47413159	     11.94671763	    -21.25493072	     13.46913636	    -11.84558721	     77.21635147	     28.48794745	     84.74232985	    -12.77686338	     -5.10230274
      0.94915254	      4.64763649	     -2.66609479	     83.57101856	      0.21260674	      0.77279601	      0.83610559	     23.44700603	     -0.90180634	     -1.19494209	     20.19180054	      0.35241340	     44.80960249	     12.01722811	      0.00000000	     19.43145018	     -1.01268834	     -2.37227503	     18.99301371	      0.33149062	     38.89716538	     -6.79275411	      0.00000000	      0.23180719	      0.53535311	      1.57305870	      0.43048914	      0.71201964	      1.67137486	      0.38083604	      1.30165756	      1.67137486	      0.26493244	      1.30165756	      1.37642636	      0.21525616	      1.09169207	      1.27811019	      0.13245463	      0.82926197	      1.17979402	      1.65577561	      6.05602150	      8.74888055	      0.00000000	      0.00000000	     28.26116505	     -5.39330698	     -7.20403802	     10.04797283	     -9.90395026	    129.15491535	      1.62322729	      1.38145602	     12.59570859	    -21.30589232	     14.80280423	    -11.50675991	     82.10983814	     27.88944896	     84.45886871	    -15.90933908	     -6.37705348
      0.96610169	      4.37383698	     -2.45282720	     83.08720088	      0.21574891	      0.77358700	      0.83447571	     23.22852877	     -0.70266911	     -0.00303249	     20.06413998	      0.35018530	     45.15958455	     11.16387875	      0.00000000	     18.96506730	     -1.17861350	     -3.38629721	     18.92021459	      0.33022004	     39.33859763	     -5.66776030	      0.00000000	      0.17816244	      0.56339035	      1.88921003	      0.33086546	      0.74930917	      2.00728565	      0.29270307	      1.36982730	      2.00728565	      0.20362185	      1.36982730	      1.65305877	      0.16544164	      1.14886560	      1.53498315	      0.10180202	      0.87269165	      1.41690752	      1.27259648	      6.37318433	     10.50721941	      0.00000000	      0.00000000	     28.17430622	     -4.96103623	     -7.75636511	     10.04979469	    -10.50458567	    130.93967120	      1.49215981	      1.32886675	     13.57833265	    -20.90187071	     15.44391702	    -11.24868105	     84.58734570	     27.37600181	     84.53656319	    -18.64870349	     -7.60932992
      0.98305085	      4.22248463	     -2.34259745	     82.71816955	      0.21915061	      0.77408511	      0.83302043	     23.14708244	     -0.42151124	      0.89682370	     20.02230999	      0.34945523	     45.53069595	     10.52805505	      0.00000000	     18.62921764	     -1.44780444	     -4.14229791	     18.92211984	      0.33025329	     39.58550331	     -4.84083097	      0.00000000	      0.13009352	      0.61642685	      2.01749285	      0.24159668	      0.81984771	      2.14358615	      0.21373065	      1.49878024	      2.14358615	      0.14868389	      1.49878024	      1.76530624	      0.12080484	      1.25701763	      1.63921294	      0.07433544	      0.95484519	      1.51311963	      0.92924501	      6.97314379	     11.22068996	      0.00000000	      0.00000000	     28.00337913	     -4.08336468	     -7.30162170	     10.55491226	    -11.03403711	    133.68688328	      1.51797233	      1.34369991	     14.86409652	    -20.04170152	     15.15941272	    -11.25667973	     83.82144912	     27.08422886	     84.90034047	    -20.66168220	     -8.85252566
      1.00000000	      4.19402034	     -2.26173453	     82.50431648	      0.22267244	      0.77444735	      0.83166906	     23.06676384	     -0.05820493	      1.63084899	     19.97100019	      0.34855971	     45.88134428	      9.96908632	      0.00000000	     18.32889659	     -1.81526876	     -4.79690125	     18.94398828	      0.33063497	     39.69298675	     -4.09180051	      0.00000000	      0.09015471	      0.69446669	      1.94084679	      0.16742631	      0.92364069	      2.06214971	      0.14811517	      1.68852630	      2.06214971	      0.10303782	      1.68852630	      1.69824094	      0.08371766	      1.41615647	      1.57693801	      0.05151440	      1.07572890	      1.45563509	      0.64396606	      7.85594605	     10.79440758	      0.00000000	      0.00000000	     27.60931017	     -3.15974918	     -5.57459136	     11.54016424	    -11.42203099	    137.15448151	      1.70761544	      1.43061071	     16.19864356	    -18.74881956	     14.01943622	    -11.51414259	     80.46354990	     27.07998746	     85.00855175	    -22.14537049	    -10.08047448
      1.01694915	      4.35042807	     -2.12127252	     82.41721317	      0.22643143	      0.77492379	      0.83040833	     22.82376661	      0.46545466	      2.26396709	     19.80800681	      0.34571494	     46.02531811	      9.31218546	      0.00000000	     18.00640430	     -2.38469979	     -5.52323212	     19.08193779	      0.33304264	     39.79051070	     -3.12162986	      0.00000000	      0.05805827	      0.79379129	      1.69807108	      0.10782002	      1.05574242	      1.80420052	      0.09538394	      1.93002415	      1.80420052	      0.06635480	      1.93002415	      1.48581220	      0.05391291	      1.61869921	      1.37968275	      0.03317450	      1.22958271	      1.27355331	      0.41470445	      8.97952587	      9.44416193	      0.00000000	      0.00000000	     26.64293000	     -2.74781365	     -3.22513006	     12.85545502	    -11.55600709	    142.40315002	      1.84390759	      1.43485730	     16.97422467	    -17.42165372	     11.68946458	    -12.07543502	     72.48071854	     27.86620450	     86.83542684	    -21.22817694	    -10.29920832
      1.03389831	      4.49171505	     -1.98098619	     82.48258737	      0.23012343	      0.77542107	      0.82895830	     22.50198975	      0.85756330	      2.45368067	     19.58683836	      0.34185482	     46.18170937	      9.09253428	      0.00000000	     17.68997569	     -2.83154520	     -5.81451601	     19.19083831	      0.33494331	     39.76804467	     -2.66543037	      0.00000000	      0.05929470	      0.89071042	      1.31896612	      0.11011619	      1.18464486	      1.40140150	      0.09741527	      2.16567332	      1.40140150	      0.06776792	      2.16567332	      1.15409535	      0.05506106	      1.81633670	      1.07165997	      0.03388099	      1.37971045	      0.98922459	      0.42353614	     10.07589445	      7.33569385	      0.00000000	      0.00000000	     24.90122195	     -2.98235858	     -0.15701810	     14.20308126	    -11.42408128	    147.37169069	      2.10099491	      1.56570028	     17.32223260	    -15.95106793	      8.78842321	    -12.60571218	     64.29427354	     28.80424516	     87.67050502	    -20.27912701	    -10.41908845
      1.05084746	      4.63344277	     -1.81193030	     82.62627007	      0.23384294	      0.77589136	      0.82762110	     22.07058466	      1.19984169	      2.46488021	     19.28323766	      0.33655599	     46.20977339	      8.90991217	      0.00000000	     17.37651914	     -3.24808543	     -6.03254546	     19.29337471	      0.33673291	     39.87589381	     -2.15802516	      0.00000000	      0.07003813	      0.97193445	      0.91099866	      0.13006781	      1.29267282	      0.96793608	      0.11506565	      2.36316142	      0.96793608	      0.08004658	      2.36316142	      0.79712383	      0.06503741	      1.98196873	      0.74018641	      0.04001979	      1.50552646	      0.68324900	      0.50027537	     10.99471686	      5.06670126	      0.00000000	      0.00000000	     23.32215250	     -3.86987261	      2.55771141	     15.32808935	    -11.03054132	    153.12664843	      2.02912841	      1.68597981	     16.94067136	    -14.71697098	      5.67564702	    -13.06019599	     56.23962089	     29.86466278	     88.18785751	    -18.80429072	     -9.97697497
      1.06779661	      4.78355376	     -1.65792281	     83.03619672	      0.23727805	      0.77608065	      0.82641666	     21.59601718	      1.45631387	      2.29814873	     18.97011569	      0.33109098	     46.24589064	      8.56596193	      0.00000000	     17.17783421	     -3.60587379	     -6.08630541	     19.44719280	      0.33941754	     40.17846257	     -1.41932037	      0.00000000	      0.08258869	      1.02969522	      0.51924833	      0.15337546	      1.36949464	      0.55170135	      0.13568496	      2.50360096	      0.55170135	      0.09439062	      2.50360096	      0.45434229	      0.07669186	      2.09975449	      0.42188927	      0.04719118	      1.59499789	      0.38943625	      0.58992278	     11.64811825	      2.88790344	      0.00000000	      0.00000000	     23.00634617	     -4.98207080	      4.17751852	     16.05971264	    -10.53678328	    159.55931510	      1.61775918	      1.84510522	     15.51018726	    -13.96947117	      2.76213486	    -13.40116153	     49.20144833	     30.76979483	     88.48861521	    -17.40396028	     -9.13440536
      1.08474576	      4.91251731	     -1.54491231	     83.37428018	      0.24078451	      0.77596083	      0.82585371	     21.19823541	      1.70909166	      2.19267141	     18.69783447	      0.32633877	     46.13901656	      8.23939389	      0.00000000	     17.12139666	     -3.96721503	     -6.19030625	     19.65941348	      0.34312149	     40.60433078	     -0.57758682	      0.00000000	      0.08139987	      1.06105676	      0.24832513	      0.15116769	      1.41120549	      0.26384545	      0.13373184	      2.57985341	      0.26384545	      0.09303191	      2.57985341	      0.21728449	      0.07558792	      2.16370695	      0.20176417	      0.04651188	      1.64357692	      0.18624385	      0.58143110	     12.00288628	      1.38110990	      0.00000000	      0.00000000	     24.04039946	     -5.73293718	      4.62548840	     16.49683114	    -10.09217152	    166.83630194	      1.07478500	      2.10933923	     12.77916581	    -13.57358901	      0.46194804	    -13.68692772	     43.32911353	     31.39689417	     88.66419101	    -15.44991200	     -7.47407017
